<svg width="26" height="24" viewBox="0 0 26 24" fill="none" xmlns="http://www.w3.org/2000/svg">
<g clip-path="url(#clip0_69_2703)">
<path d="M18.6529 24C21.5452 24 23.7639 21.2891 23.5561 18.4043C23.257 14.2525 23.3456 8.29023 25.2102 2.2692C25.5522 1.16462 24.7536 -8.44713e-07 23.5973 -7.43623e-07C23.1418 -7.03801e-07 22.712 0.183451 22.4213 0.534146C20.8413 2.44018 15.6819 9.34057 14.4319 19.512C14.1291 21.9763 16.1701 24 18.6529 24Z" fill="white"/>
<path d="M4.4947 24C7.387 24 9.60566 21.2891 9.39786 18.4043C9.09881 14.2525 9.18735 8.29023 11.052 2.2692C11.394 1.16462 10.5954 -8.44713e-07 9.43909 -7.43623e-07C8.98358 -7.03801e-07 8.55378 0.183451 8.26308 0.534146C6.68314 2.44018 1.52368 9.34057 0.273739 19.512C-0.0290868 21.9763 2.0119 24 4.4947 24Z" fill="white"/>
</g>
<defs>
<clipPath id="clip0_69_2703">
<rect width="26" height="24" fill="white" transform="translate(26 24) rotate(180)"/>
</clipPath>
</defs>
</svg>
